<svg xmlns="http://www.w3.org/2000/svg" width="30" height="31" fill="none" viewBox="0 0 30 31"><path stroke="#fff" stroke-linecap="round" stroke-linejoin="round" stroke-miterlimit="10" stroke-width="1.5" d="M19.25 3c.25 1.375-.375 2.75-1.125 3.75S16 8.625 14.625 8.5c-.25-1.375.375-2.625 1.125-3.625.875-1 2.25-1.75 3.5-1.875m4 21.75c.625-1 1-1.625 1.5-2.75-3.875-1.5-4.5-7-.625-9-1.125-1.5-2.75-2.25-4.375-2.25-1.125 0-1.875.25-2.625.5-.625.25-1.125.375-1.75.375-.75 0-1.25-.25-2-.5s-1.5-.5-2.375-.5c-1.75 0-3.625 1-4.75 2.875C4.625 16 4.875 20.875 7.5 24.875c1.125 1.5 2.375 3.125 4 3.125.75 0 1.125-.25 1.625-.375.625-.25 1.25-.5 2.25-.5 1.125 0 1.625.25 2.25.5.5.25.875.375 1.625.375 1.75 0 3-1.875 4-3.25" clip-rule="evenodd"/></svg>