<svg xmlns="http://www.w3.org/2000/svg" width="16" height="16" fill="none" viewBox="0 0 16 16"><g clip-path="url(#clip0_65_279)"><path fill="url(#paint0_linear_65_279)" d="M8 0C4.692 0 2 2.71 2 6.043c0 4.736 5.436 9.625 5.667 9.83A.5.5 0 0 0 8.332 15.874C8.565 15.668 14 10.779 14 6.044 14 2.71 11.308 0 8 0m0 9.333A3.337 3.337 0 0 1 4.667 6 3.337 3.337 0 0 1 8 2.667 3.337 3.337 0 0 1 11.333 6 3.337 3.337 0 0 1 8 9.333"/></g><defs><linearGradient id="paint0_linear_65_279" x1="2" x2="14.003" y1="8" y2="8.225" gradientUnits="userSpaceOnUse"><stop stop-color="#4a00e0"/><stop offset="1" stop-color="#8e2de2"/></linearGradient><clipPath id="clip0_65_279"><path fill="#fff" d="M0 0h16v16H0Z"/></clipPath></defs></svg>