<svg xmlns="http://www.w3.org/2000/svg" width="16" height="16" fill="none" viewBox="0 0 16 16"><path fill="url(#paint0_linear_65_268)" d="M11.725 10.465a1.5 1.5 0 0 0-2.125 0l-.725.725A13 13 0 0 1 6.62 9.38a13 13 0 0 1-1.81-2.255l.725-.725a1.5 1.5 0 0 0 0-2.125L4.12 2.865a1.47 1.47 0 0 0-1.055-.44A1.5 1.5 0 0 0 2 2.865l-.68.675A3.19 3.19 0 0 0 .5 6.165c.16 1.875 1.39 4.13 3.285 6.03S7.96 15.32 9.835 15.5q.21.012.42 0a3.03 3.03 0 0 0 2.205-.82l.675-.68a1.5 1.5 0 0 0 0-2.12Z"/><path fill="url(#paint1_linear_65_268)" d="M13.3 2.695A7.46 7.46 0 0 0 8 .5a.5.5 0 1 0 0 1 6.5 6.5 0 0 1 6.5 6.555.5.5 0 0 0 1 0 7.45 7.45 0 0 0-2.2-5.36"/><path fill="url(#paint2_linear_65_268)" d="M10.455 5.555a3 3 0 0 1 .885 2.155.5.5 0 0 0 1 0 4 4 0 0 0-4-4.05.5.5 0 0 0 0 1 3 3 0 0 1 2.115.895"/><defs><linearGradient id="paint0_linear_65_268" x1=".467" x2="13.575" y1="8.966" y2="9.294" gradientUnits="userSpaceOnUse"><stop stop-color="#4a00e0"/><stop offset="1" stop-color="#8e2de2"/></linearGradient><linearGradient id="paint1_linear_65_268" x1="7.5" x2="15.5" y1="4.528" y2="4.726" gradientUnits="userSpaceOnUse"><stop stop-color="#4a00e0"/><stop offset="1" stop-color="#8e2de2"/></linearGradient><linearGradient id="paint2_linear_65_268" x1="7.84" x2="12.34" y1="5.935" y2="6.046" gradientUnits="userSpaceOnUse"><stop stop-color="#4a00e0"/><stop offset="1" stop-color="#8e2de2"/></linearGradient></defs></svg>