<svg xmlns="http://www.w3.org/2000/svg" width="30" height="31" fill="none" viewBox="0 0 30 31"><rect width="30.001" height="30.001" fill="#fff" rx="6"/><path fill="url(#paint0_linear_66_6)" d="M23.318 7.493c-1.53-.69-3.17-1.2-4.886-1.49a.075.075 0 0 0-.079.036c-.21.369-.444.85-.608 1.23a18.6 18.6 0 0 0-5.487 0 12 12 0 0 0-.617-1.23A.08.08 0 0 0 11.563 6c-1.714.29-3.354.8-4.885 1.49a.1.1 0 0 0-.032.027C3.533 12.095 2.68 16.557 3.1 20.963a.08.08 0 0 0 .031.055 20 20 0 0 0 5.993 2.98.08.08 0 0 0 .084-.026c.463-.619.873-1.276 1.226-1.963a.074.074 0 0 0-.041-.104 13 13 0 0 1-1.872-.878.07.07 0 0 1-.038-.06.08.08 0 0 1 .03-.065q.19-.14.372-.287a.08.08 0 0 1 .078-.01c3.928 1.764 8.18 1.764 12.061 0a.08.08 0 0 1 .079.009q.18.148.372.288a.08.08 0 0 1 .03.064.08.08 0 0 1-.037.06q-.893.516-1.871.878a.07.07 0 0 0-.044.043.07.07 0 0 0 .003.062c.36.687.771 1.34 1.224 1.962a.08.08 0 0 0 .084.028 20 20 0 0 0 6.002-2.98.08.08 0 0 0 .032-.054c.5-5.095-.837-9.521-3.548-13.443a.06.06 0 0 0-.031-.028M11.02 18.279c-1.182 0-2.157-1.07-2.157-2.38 0-1.312.956-2.38 2.158-2.38 1.21 0 2.175 1.077 2.156 2.38 0 1.312-.955 2.38-2.156 2.38m7.976 0c-1.183 0-2.157-1.07-2.157-2.38 0-1.312.955-2.38 2.157-2.38 1.21 0 2.176 1.077 2.157 2.38 0 1.312-.947 2.38-2.157 2.38"/><defs><linearGradient id="paint0_linear_66_6" x1="-2" x2="32" y1="15" y2="15" gradientUnits="userSpaceOnUse"><stop stop-color="#4c01e0"/><stop offset="1" stop-color="#8c2be2"/></linearGradient></defs></svg>