<svg xmlns="http://www.w3.org/2000/svg" width="26" height="26" fill="none" viewBox="0 0 26 26"><path fill="url(#paint0_linear_330_10364)" d="M17.54 2.167H8.461c-3.944 0-6.295 2.35-6.295 6.294v9.068c0 3.954 2.35 6.304 6.294 6.304h9.068c3.943 0 6.294-2.35 6.294-6.294V8.461c.01-3.944-2.34-6.294-6.284-6.294M8.265 19.663a.82.82 0 0 1-.813.813.82.82 0 0 1-.813-.813V17.42c0-.445.37-.813.813-.813.445 0 .813.368.813.812Zm5.547 0a.82.82 0 0 1-.813.813.82.82 0 0 1-.813-.813v-4.496c0-.444.369-.813.813-.813s.813.369.813.813Zm5.546 0a.82.82 0 0 1-.813.813.82.82 0 0 1-.813-.813v-6.738c.001-.445.37-.813.814-.813s.812.368.812.812Zm0-10.162a.82.82 0 0 1-.813.813.82.82 0 0 1-.813-.813V8.45a21.16 21.16 0 0 1-10.086 5.807c-.064.02-.129.02-.194.02a.82.82 0 0 1-.79-.617.81.81 0 0 1 .596-.986c3.65-.91 6.9-2.828 9.479-5.536h-1.354a.82.82 0 0 1-.813-.813c0-.444.368-.812.812-.812h3.174c.044 0 .076.022.12.022.054.01.108.01.162.032s.098.054.152.087c.032.022.065.032.097.054.011.011.011.022.022.022.043.043.076.086.108.13.033.043.065.076.076.119.022.043.022.087.033.14.01.055.032.11.032.174 0 .011.011.022.011.033V9.5Z"/><defs><linearGradient id="paint0_linear_330_10364" x1="2.167" x2="23.823" y1="13" y2="13.541" gradientUnits="userSpaceOnUse"><stop stop-color="#4a00e0"/><stop offset="1" stop-color="#8e2de2"/></linearGradient></defs></svg>