<svg xmlns="http://www.w3.org/2000/svg" width="26" height="26" fill="none" viewBox="0 0 26 26"><path fill="url(#paint0_linear_330_10393)" d="M17.54 2.167H8.461c-3.944 0-6.295 2.35-6.295 6.294v9.067c0 3.955 2.35 6.305 6.294 6.305h9.068c3.943 0 6.294-2.35 6.294-6.294V8.461c.01-3.943-2.34-6.294-6.284-6.294M13 19.77c-1.94 0-3.456-.964-4.485-1.918v.77a.82.82 0 0 1-.813.813.82.82 0 0 1-.813-.813v-2.98c.001-.444.37-.812.814-.812h2.687c.443 0 .812.368.812.812a.82.82 0 0 1-.813.813h-.975c.802.802 2.048 1.69 3.586 1.69A5.15 5.15 0 0 0 18.146 13c0-.444.368-.812.812-.812s.813.368.813.812A6.773 6.773 0 0 1 13 19.77m6.77-9.436v.087a.82.82 0 0 1-.325.585 1 1 0 0 1-.26.13.8.8 0 0 1-.227.033h-2.633a.82.82 0 0 1-.813-.813c.001-.444.37-.813.814-.813h.9c-.868-.801-2.265-1.69-4.204-1.69A5.15 5.15 0 0 0 7.876 13a.82.82 0 0 1-.813.813c-.444 0-.834-.369-.834-.813A6.773 6.773 0 0 1 13 6.23c2.33 0 4.042 1.007 5.147 1.97v-.823c0-.444.368-.812.812-.812s.813.368.813.813Z"/><defs><linearGradient id="paint0_linear_330_10393" x1="2.167" x2="23.823" y1="13" y2="13" gradientUnits="userSpaceOnUse"><stop stop-color="#e65c00"/><stop offset="1" stop-color="#f9d423"/></linearGradient></defs></svg>