<svg xmlns="http://www.w3.org/2000/svg" width="26" height="26" fill="none" viewBox="0 0 26 26"><path fill="url(#paint0_linear_330_10376)" d="M17.54 2.167H8.461c-3.944 0-6.295 2.35-6.295 6.294v9.068c0 3.954 2.35 6.304 6.294 6.304h9.068c3.943 0 6.294-2.35 6.294-6.294V8.461c.01-3.944-2.34-6.294-6.284-6.294m.194 13.379L15.33 17.95a2.95 2.95 0 0 1-2.102.867 2.98 2.98 0 0 1-2.98-2.968c.001-.792.316-1.55.879-2.102l1.527-1.528a.817.817 0 0 1 1.148 0 .817.817 0 0 1 0 1.148l-1.527 1.528a1.337 1.337 0 0 0 0 1.907C12.805 17.333 13.661 17.333 14.192 16.802l2.405-2.406a3.524 3.524 0 0 0-4.983-4.983l-2.622 2.622a2.88 2.88 0 0 0 0 4.095.817.817 0 0 1 0 1.148.817.817 0 0 1-1.148 0A4.39 4.39 0 0 1 6.5 14.094c-.001-1.213.465-2.35 1.32-3.207l2.622-2.621a5.16 5.16 0 0 1 7.28 0 5.15 5.15 0 0 1 .01 7.28"/><defs><linearGradient id="paint0_linear_330_10376" x1="2.167" x2="23.823" y1="13" y2="13.541" gradientUnits="userSpaceOnUse"><stop stop-color="#11998e"/><stop offset="1" stop-color="#38ef7d"/></linearGradient></defs></svg>