<svg xmlns="http://www.w3.org/2000/svg" width="26" height="26" fill="none" viewBox="0 0 26 26"><path fill="url(#paint0_linear_330_10352)" d="M17.666 13A4.665 4.665 0 1 1 8.336 13.00029574407534 4.665 4.665 0 0 1 17.665 13"/><path fill="url(#paint1_linear_330_10352)" d="M23.46 5.087a4.16 4.16 0 0 0-1.004-1.543 4.16 4.16 0 0 0-1.543-1.004c-.472-.183-1.183-.402-2.49-.462C17.006 2.014 16.582 2 13 2s-4.007.014-5.422.078c-1.308.06-2.019.279-2.491.462a4.15 4.15 0 0 0-1.543 1.004A4.16 4.16 0 0 0 2.54 5.087c-.183.472-.402 1.183-.462 2.491C2.014 8.993 2 9.418 2 13c0 3.583.014 4.007.078 5.422.06 1.308.279 2.019.462 2.491a4.16 4.16 0 0 0 1.004 1.543c.433.446.96.789 1.543 1.004.472.184 1.183.402 2.491.462C8.993 23.986 9.417 24 13 24s4.007-.014 5.422-.078c1.308-.06 2.019-.278 2.491-.462a4.44 4.44 0 0 0 2.546-2.546c.184-.473.403-1.184.463-2.492.064-1.415.078-1.84.078-5.422 0-3.583-.014-4.007-.078-5.422-.06-1.308-.278-2.019-.462-2.491M13 19.89A6.89 6.89 0 1 1 13 6.11 6.89 6.89 0 0 1 13 19.89m7.163-12.442A1.61 1.61 0 1 1 20.163 4.228 1.61 1.61 0 0 1 20.163 7.447"/><defs><linearGradient id="paint0_linear_330_10352" x1="8.334" x2="17.666" y1="13" y2="13" gradientUnits="userSpaceOnUse"><stop stop-color="#ff0080"/><stop offset="1" stop-color="#ff8c00"/></linearGradient><linearGradient id="paint1_linear_330_10352" x1="2" x2="24" y1="13" y2="13" gradientUnits="userSpaceOnUse"><stop stop-color="#ff0080"/><stop offset="1" stop-color="#ff8c00"/></linearGradient></defs></svg>